<svg data-v-d3f97b9e="" xmlns="http://www.w3.org/2000/svg" viewBox="0 0 83.05256381091907 60"><!----><!----><!----><!----><g data-v-d3f97b9e="" id="a6f18b0d-1f71-49ef-bbf0-4ace0108db6c" transform="matrix(0.8305478794960394,0,0,0.8305478794960394,-0.0014031746541860457,-14.061405554263601)" stroke="none" fill="black"><path d="M98.55 26.94c-.333-.167-2.786-.749-4.823-1.163-2.037-.415-1.871-1.623-2.245-2.289-.374-.666-.941-1.661-2.272-2.051-.739-.213-2.082-.593-3.638-.799a1.659 1.659 0 0 0-.354-.209c-.521-.226-.823-.55-2.322-.536-1.368.012-2.755 1.005-3.029 1.429l.015.012c-1.986 1.142-3.293 3.263-3.949 3.986-.832.913-3.16 3.825-5.488 5.821-2.328 1.993-3.494 3.407-5.489 4.24-1.992.833-4.073.666-5.987 1.514-1.911.849-4.739 1.148-8.646.649-3.908-.501-10.727-.917-14.469-1.247-3.744-.335-8.646 1.173-8.898 1.247-.68.197-1.053.026-2.662-.527-1.607-.556-8.481-2.44-12.196-4.047-3.713-1.607-6.208-6.319-7.982-10.423-.924-2.131-1.95-3.559-2.722-4.439-.716-.814-1.021-1.279-1.215-1.159-.194.119-.24.241-.082 1.526.123.993.022 1.511.41 4.414.887 6.654 5.271 11.192 7.822 13.13 2.551 1.942 13.307 5.437 13.804 5.712.499.277.555.887.444 1.72-.111.831-.444 1.219-.887 1.608-.444.386-1.274 3.214-1.441 4.268-.166 1.05.222 4.766.776 5.504.555.743.887 3.2 1.164 4.639.277 1.439.61 4.324.057 4.988-.556.665-.444 1.055-.942 1.499-.5.444-1.289 3.562-1.528 4.805-.242 1.241-.247 1.735-.247 1.735s-.499.777-.998 1.22c-.498.444-.333.776-.277 1.109.056.332-.054 1.83 0 2.327.056.499.555 1.662.611 2.327.055.665.831 4.712.942 5.214.11.498.611 1.661.611 2.16 0 .497.941 1.385 1.664 1.886.72.499 1.772.499 2.826.331 1.053-.168.832-.498 1.332-.773.499-.28.555-.613.387-1.11-.166-.5-1.496-1.72-2.218-1.773-.72-.056-1.519-.556-1.783-.989-.252-.418.07-2.448.07-2.448s.882.331 1.658.221c.776-.11.832-.499 1.275-.555s.555-.497.665-.996c.111-.501-.166-1.109-.941-1.389-.776-.276-1.831-.33-2.386-.664-.555-.332-.11-1.884 0-2.437.11-.556 1.774-3.606 2.772-4.604.999-1 2.329-2.494 3.105-3.992.776-1.497 1.607-1.773 2.938-4.879 1.331-3.105 2.495-6.374 2.826-6.763.333-.39 3.771.444 6.543.557 2.771.108 7.262 1.606 12.307 3.491 5.044 1.888 10.866 2.161 11.475 2.329.611.164.457.119.657.578.194.443.063 1.915-.046 2.523-.112.61.331 1.275.277 1.995-.056.725.444 6.487.61 8.764.166 2.271.108 4.821.666 5.374.552.556.884 2.055 1.164 2.773.275.72.387 2.051 2.05 3.159 1.664 1.109 2.997.39 4.438.168 1.44-.222 1.438-.832.828-1.941-.609-1.108-2.161-1.498-2.771-1.773-.61-.276-1.164-1.996-1.164-1.996s1.164.112 1.663 0c.498-.11.665-.498 1.054-.332.388.168.83-.332.998-.718.165-.391 0-1.109-.223-1.5-.222-.388-1.164-1.054-1.663-1.163-.497-.112-1.441-.167-1.718-.501-.277-.331-.724-1.938-.777-2.381-.056-.444.166-1.888.276-2.883.111-1 .501-5.712.723-6.931.221-1.218.775-2.439 1.108-3.271.332-.83 1.052-1.884 1.496-2.215.444-.335 1.886-2.108 2.606-3.606.72-1.494 1.387-3.102 1.607-3.381.221-.278.887-.998 1.219-2.16.332-1.167-.124-2.691.082-3.188.21-.499 1.083-1.331 1.79-2.163.706-.83 1.082-1.704 1.621-2.578.539-.871 1.08-2.993 1.206-3.448.124-.459 1.496-2.372 2.122-3.536.621-1.163 2.325-1.621 3.614-1.163 1.288.457 2.788.251 3.119 0 .333-.251 1.361-.575 1.66-.536.482.063.792.039 1.623-.422.831-.456 1.955-2.159 2.328-2.867.374-.707.208-1.414.208-1.414s.309.181.584-1.057c.25-1.139-1.086-1.399-1.418-1.567z"></path></g><!----></svg>