<svg data-v-29081953="" xmlns="http://www.w3.org/2000/svg" viewBox="0 0 300 300"><!----><defs data-v-29081953=""><!----></defs><rect data-v-29081953="" fill="#2b6122" x="0" y="0" width="300px" height="300px" class="logo-background-square"></rect><defs data-v-29081953=""><!----></defs><g data-v-29081953="" id="67b1dcb6-9cec-43b5-92a3-6d1e05deb148" fill="#FFFFFF" transform="matrix(2.38487855545906,0,0,2.38487855545906,119.17292027666366,126.65203846443235)"><path d="M1.28 13.78L1.28 2.80L3.57 2.80L3.57 2.80Q4.99 2.80 5.98 3.44L5.98 3.44L5.98 3.44Q6.97 4.07 7.48 5.32L7.48 5.32L7.48 5.32Q7.99 6.57 7.99 8.39L7.99 8.39L7.99 8.39Q7.99 10.11 7.47 11.32L7.47 11.32L7.47 11.32Q6.95 12.53 5.95 13.16L5.95 13.16L5.95 13.16Q4.96 13.78 3.55 13.78L3.55 13.78L1.28 13.78ZM2.32 12.80L3.39 12.80L3.39 12.80Q5.18 12.80 6.05 11.69L6.05 11.69L6.05 11.69Q6.92 10.58 6.92 8.29L6.92 8.29L6.92 8.29Q6.92 6.00 6.09 4.89L6.09 4.89L6.09 4.89Q5.25 3.77 3.53 3.77L3.53 3.77L2.32 3.77L2.32 12.80ZM12.17 13.96L12.17 13.96Q11.26 13.96 10.57 13.50L10.57 13.50L10.57 13.50Q9.88 13.04 9.49 12.09L9.49 12.09L9.49 12.09Q9.11 11.14 9.11 9.74L9.11 9.74L9.11 9.74Q9.11 8.32 9.49 7.36L9.49 7.36L9.49 7.36Q9.88 6.41 10.56 5.94L10.56 5.94L10.56 5.94Q11.25 5.48 12.17 5.48L12.17 5.48L12.17 5.48Q13.08 5.48 13.77 5.94L13.77 5.94L13.77 5.94Q14.46 6.41 14.85 7.36L14.85 7.36L14.85 7.36Q15.24 8.32 15.24 9.74L15.24 9.74L15.24 9.74Q15.24 11.14 14.85 12.08L14.85 12.08L14.85 12.08Q14.46 13.03 13.77 13.49L13.77 13.49L13.77 13.49Q13.08 13.96 12.17 13.96L12.17 13.96ZM12.17 13.04L12.17 13.04Q14.29 13.04 14.29 9.74L14.29 9.74L14.29 9.74Q14.29 6.38 12.17 6.38L12.17 6.38L12.17 6.38Q11.18 6.38 10.64 7.19L10.64 7.19L10.64 7.19Q10.09 8.00 10.09 9.74L10.09 9.74L10.09 9.74Q10.09 11.45 10.64 12.24L10.64 12.24L10.64 12.24Q11.18 13.04 12.17 13.04L12.17 13.04ZM21.24 5.63L22.24 5.63L22.24 13.30L22.24 13.30Q22.24 15.05 21.46 15.91L21.46 15.91L21.46 15.91Q20.69 16.78 19.25 16.78L19.25 16.78L19.25 16.78Q18.59 16.78 18.00 16.57L18.00 16.57L18.00 16.57Q17.40 16.36 16.98 15.95L16.98 15.95L16.98 15.95Q16.55 15.54 16.39 14.96L16.39 14.96L17.18 14.56L17.18 14.56Q17.43 15.24 18.01 15.58L18.01 15.58L18.01 15.58Q18.59 15.93 19.26 15.93L19.26 15.93L19.26 15.93Q20.24 15.93 20.75 15.29L20.75 15.29L20.75 15.29Q21.25 14.66 21.25 13.30L21.25 13.30L21.25 12.46L21.25 12.46Q20.90 13.08 20.34 13.40L20.34 13.40L20.34 13.40Q19.78 13.72 19.06 13.72L19.06 13.72L19.06 13.72Q18.12 13.72 17.47 13.15L17.47 13.15L17.47 13.15Q16.82 12.58 16.50 11.64L16.50 11.64L16.50 11.64Q16.18 10.69 16.18 9.56L16.18 9.56L16.18 9.56Q16.18 8.44 16.51 7.51L16.51 7.51L16.51 7.51Q16.83 6.58 17.50 6.03L17.50 6.03L17.50 6.03Q18.17 5.48 19.15 5.48L19.15 5.48L19.15 5.48Q19.78 5.48 20.30 5.72L20.30 5.72L20.30 5.72Q20.82 5.96 21.18 6.59L21.18 6.59L21.24 6.59L21.24 5.63ZM19.33 12.84L19.33 12.84Q20.38 12.84 20.88 11.99L20.88 11.99L20.88 11.99Q21.38 11.14 21.38 9.74L21.38 9.74L21.38 9.74Q21.38 8.83 21.17 8.06L21.17 8.06L21.17 8.06Q20.95 7.29 20.48 6.81L20.48 6.81L20.48 6.81Q20.00 6.34 19.26 6.34L19.26 6.34L19.26 6.34Q18.56 6.34 18.09 6.77L18.09 6.77L18.09 6.77Q17.62 7.21 17.40 7.94L17.40 7.94L17.40 7.94Q17.18 8.68 17.18 9.60L17.18 9.60L17.18 9.60Q17.18 10.50 17.40 11.23L17.40 11.23L17.40 11.23Q17.63 11.96 18.11 12.40L18.11 12.40L18.11 12.40Q18.59 12.84 19.33 12.84L19.33 12.84ZM24.54 13.78L24.54 2.80L27.83 2.80L27.83 2.80Q28.66 2.80 29.27 3.16L29.27 3.16L29.27 3.16Q29.89 3.51 30.21 4.17L30.21 4.17L30.21 4.17Q30.54 4.83 30.54 5.71L30.54 5.71L30.54 5.71Q30.54 7.48 29.22 8.03L29.22 8.03L29.22 8.09L29.22 8.09Q29.74 8.20 30.13 8.55L30.13 8.55L30.13 8.55Q30.52 8.90 30.74 9.47L30.74 9.47L30.74 9.47Q30.97 10.05 30.97 10.81L30.97 10.81L30.97 10.81Q30.97 11.72 30.63 12.39L30.63 12.39L30.63 12.39Q30.30 13.06 29.70 13.42L29.70 13.42L29.70 13.42Q29.09 13.78 28.31 13.78L28.31 13.78L24.54 13.78ZM25.57 7.75L27.69 7.75L27.69 7.75Q28.16 7.75 28.57 7.50L28.57 7.50L28.57 7.50Q28.97 7.25 29.21 6.78L29.21 6.78L29.21 6.78Q29.46 6.30 29.46 5.67L29.46 5.67L29.46 5.67Q29.46 3.77 27.80 3.77L27.80 3.77L25.57 3.77L25.57 7.75ZM25.57 12.78L28.18 12.78L28.18 12.78Q29.06 12.78 29.49 12.24L29.49 12.24L29.49 12.24Q29.93 11.70 29.93 10.74L29.93 10.74L29.93 10.74Q29.93 10.10 29.69 9.63L29.69 9.63L29.69 9.63Q29.45 9.15 29.05 8.89L29.05 8.89L29.05 8.89Q28.64 8.64 28.18 8.64L28.18 8.64L25.57 8.64L25.57 12.78ZM34.71 5.48L34.71 5.48Q35.44 5.48 36.02 5.75L36.02 5.75L36.02 5.75Q36.59 6.03 36.92 6.58L36.92 6.58L36.92 6.58Q37.25 7.12 37.25 7.90L37.25 7.90L37.25 13.78L36.39 13.78L36.34 12.46L36.26 12.46L36.26 12.46Q35.90 13.13 35.29 13.55L35.29 13.55L35.29 13.55Q34.68 13.96 34.04 13.96L34.04 13.96L34.04 13.96Q33.42 13.96 32.94 13.69L32.94 13.69L32.94 13.69Q32.46 13.41 32.19 12.94L32.19 12.94L32.19 12.94Q31.92 12.47 31.92 11.90L31.92 11.90L31.92 11.90Q31.92 11.04 32.28 10.45L32.28 10.45L32.28 10.45Q32.63 9.85 33.35 9.41L33.35 9.41L33.35 9.41Q33.93 9.05 34.68 8.81L34.68 8.81L34.68 8.81Q35.44 8.57 36.33 8.47L36.33 8.47L36.33 8.04L36.33 8.04Q36.33 7.17 35.94 6.79L35.94 6.79L35.94 6.79Q35.55 6.41 34.79 6.41L34.79 6.41L34.79 6.41Q34.10 6.41 33.63 6.72L33.63 6.72L33.63 6.72Q33.15 7.03 32.81 7.67L32.81 7.67L32.07 7.13L32.07 7.13Q32.52 6.29 33.17 5.88L33.17 5.88L33.17 5.88Q33.82 5.48 34.71 5.48L34.71 5.48ZM34.17 12.99L34.17 12.99Q34.90 12.99 35.43 12.52L35.43 12.52L35.43 12.52Q35.96 12.04 36.33 11.29L36.33 11.29L36.33 9.34L36.33 9.34Q35.57 9.43 34.92 9.64L34.92 9.64L34.92 9.64Q34.28 9.84 33.82 10.19L33.82 10.19L33.82 10.19Q33.42 10.48 33.21 10.88L33.21 10.88L33.21 10.88Q32.99 11.27 32.99 11.76L32.99 11.76L32.99 11.76Q32.99 12.32 33.32 12.65L33.32 12.65L33.32 12.65Q33.65 12.99 34.17 12.99L34.17 12.99ZM41.43 13.94L41.43 13.94Q40.26 13.94 39.45 13.30L39.45 13.30L39.45 13.30Q38.63 12.66 38.31 11.50L38.31 11.50L39.20 11.06L39.20 11.06Q39.30 11.68 39.63 12.14L39.63 12.14L39.63 12.14Q39.96 12.61 40.41 12.84L40.41 12.84L40.41 12.84Q40.86 13.08 41.31 13.08L41.31 13.08L41.31 13.08Q41.71 13.08 42.04 12.93L42.04 12.93L42.04 12.93Q42.37 12.78 42.56 12.47L42.56 12.47L42.56 12.47Q42.75 12.17 42.75 11.74L42.75 11.74L42.75 11.74Q42.75 11.30 42.53 11.00L42.53 11.00L42.53 11.00Q42.31 10.70 41.99 10.51L41.99 10.51L41.99 10.51Q41.67 10.32 41.08 10.07L41.08 10.07L40.89 9.98L40.89 9.98Q40.19 9.68 39.78 9.43L39.78 9.43L39.78 9.43Q39.38 9.19 39.09 8.76L39.09 8.76L39.09 8.76Q38.80 8.33 38.80 7.67L38.80 7.67L38.80 7.67Q38.80 6.92 39.17 6.43L39.17 6.43L39.17 6.43Q39.53 5.93 40.09 5.70L40.09 5.70L40.09 5.70Q40.65 5.48 41.25 5.48L41.25 5.48L41.25 5.48Q42.06 5.48 42.72 5.90L42.72 5.90L42.72 5.90Q43.39 6.32 43.65 7.27L43.65 7.27L42.81 7.56L42.81 7.56Q42.62 6.88 42.21 6.59L42.21 6.59L42.21 6.59Q41.80 6.29 41.26 6.29L41.26 6.29L41.26 6.29Q40.89 6.29 40.56 6.42L40.56 6.42L40.56 6.42Q40.24 6.55 40.03 6.84L40.03 6.84L40.03 6.84Q39.82 7.14 39.82 7.59L39.82 7.59L39.82 7.59Q39.82 8.05 40.06 8.36L40.06 8.36L40.06 8.36Q40.30 8.67 40.65 8.85L40.65 8.85L40.65 8.85Q41.00 9.04 41.62 9.28L41.62 9.28L41.62 9.28Q42.32 9.56 42.78 9.84L42.78 9.84L42.78 9.84Q43.23 10.13 43.50 10.59L43.50 10.59L43.50 10.59Q43.78 11.05 43.78 11.73L43.78 11.73L43.78 11.73Q43.78 12.38 43.47 12.88L43.47 12.88L43.47 12.88Q43.17 13.38 42.63 13.66L42.63 13.66L42.63 13.66Q42.10 13.94 41.43 13.94L41.43 13.94ZM45.17 4.29L45.17 2.80L46.17 2.80L46.17 4.29L45.17 4.29ZM45.17 13.78L45.17 5.63L46.17 5.63L46.17 13.78L45.17 13.78ZM50.61 13.96L50.61 13.96Q49.61 13.96 48.95 13.38L48.95 13.38L48.95 13.38Q48.30 12.81 47.99 11.85L47.99 11.85L47.99 11.85Q47.69 10.90 47.69 9.73L47.69 9.73L47.69 9.73Q47.69 8.53 47.99 7.57L47.99 7.57L47.99 7.57Q48.30 6.62 48.95 6.05L48.95 6.05L48.95 6.05Q49.61 5.48 50.61 5.48L50.61 5.48L50.61 5.48Q51.63 5.48 52.25 6.00L52.25 6.00L52.25 6.00Q52.86 6.53 53.18 7.55L53.18 7.55L52.32 7.91L52.32 7.91Q52.15 7.16 51.74 6.75L51.74 6.75L51.74 6.75Q51.34 6.35 50.61 6.35L50.61 6.35L50.61 6.35Q49.55 6.35 49.12 7.34L49.12 7.34L49.12 7.34Q48.69 8.33 48.69 9.73L48.69 9.73L48.69 9.73Q48.69 11.12 49.12 12.09L49.12 12.09L49.12 12.09Q49.55 13.06 50.61 13.06L50.61 13.06L50.61 13.06Q51.35 13.06 51.75 12.66L51.75 12.66L51.75 12.66Q52.16 12.25 52.33 11.54L52.33 11.54L53.16 11.85L53.16 11.85Q52.86 12.89 52.25 13.43L52.25 13.43L52.25 13.43Q51.64 13.96 50.61 13.96L50.61 13.96ZM56.70 13.94L56.70 13.94Q55.54 13.94 54.72 13.30L54.72 13.30L54.72 13.30Q53.90 12.66 53.58 11.50L53.58 11.50L54.47 11.06L54.47 11.06Q54.57 11.68 54.90 12.14L54.90 12.14L54.90 12.14Q55.23 12.61 55.68 12.84L55.68 12.84L55.68 12.84Q56.13 13.08 56.58 13.08L56.58 13.08L56.58 13.08Q56.98 13.08 57.31 12.93L57.31 12.93L57.31 12.93Q57.64 12.78 57.83 12.47L57.83 12.47L57.83 12.47Q58.02 12.17 58.02 11.74L58.02 11.74L58.02 11.74Q58.02 11.30 57.80 11.00L57.80 11.00L57.80 11.00Q57.59 10.70 57.26 10.51L57.26 10.51L57.26 10.51Q56.94 10.32 56.36 10.07L56.36 10.07L56.16 9.98L56.16 9.98Q55.46 9.68 55.05 9.43L55.05 9.43L55.05 9.43Q54.65 9.19 54.36 8.76L54.36 8.76L54.36 8.76Q54.07 8.33 54.07 7.67L54.07 7.67L54.07 7.67Q54.07 6.92 54.44 6.43L54.44 6.43L54.44 6.43Q54.80 5.93 55.36 5.70L55.36 5.70L55.36 5.70Q55.92 5.48 56.52 5.48L56.52 5.48L56.52 5.48Q57.33 5.48 58.00 5.90L58.00 5.90L58.00 5.90Q58.66 6.32 58.93 7.27L58.93 7.27L58.08 7.56L58.08 7.56Q57.89 6.88 57.48 6.59L57.48 6.59L57.48 6.59Q57.07 6.29 56.53 6.29L56.53 6.29L56.53 6.29Q56.16 6.29 55.84 6.42L55.84 6.42L55.84 6.42Q55.51 6.55 55.30 6.84L55.30 6.84L55.30 6.84Q55.09 7.14 55.09 7.59L55.09 7.59L55.09 7.59Q55.09 8.05 55.33 8.36L55.33 8.36L55.33 8.36Q55.57 8.67 55.92 8.85L55.92 8.85L55.92 8.85Q56.27 9.04 56.89 9.28L56.89 9.28L56.89 9.28Q57.59 9.56 58.05 9.84L58.05 9.84L58.05 9.84Q58.50 10.13 58.78 10.59L58.78 10.59L58.78 10.59Q59.05 11.05 59.05 11.73L59.05 11.73L59.05 11.73Q59.05 12.38 58.74 12.88L58.74 12.88L58.74 12.88Q58.44 13.38 57.90 13.66L57.90 13.66L57.90 13.66Q57.37 13.94 56.70 13.94L56.70 13.94Z"></path></g><defs data-v-29081953=""><!----></defs><g data-v-29081953="" id="29d977c4-2173-481a-9ff8-61bd5e647179" stroke="none" fill="#FFFFFF" transform="matrix(0.6922741861256363,0,0,0.6922741861256363,39.9988302317875,113.27415381743216)"><path d="M98.55 26.94c-.333-.167-2.786-.749-4.823-1.163-2.037-.415-1.871-1.623-2.245-2.289-.374-.666-.941-1.661-2.272-2.051-.739-.213-2.082-.593-3.638-.799a1.659 1.659 0 0 0-.354-.209c-.521-.226-.823-.55-2.322-.536-1.368.012-2.755 1.005-3.029 1.429l.015.012c-1.986 1.142-3.293 3.263-3.949 3.986-.832.913-3.16 3.825-5.488 5.821-2.328 1.993-3.494 3.407-5.489 4.24-1.992.833-4.073.666-5.987 1.514-1.911.849-4.739 1.148-8.646.649-3.908-.501-10.727-.917-14.469-1.247-3.744-.335-8.646 1.173-8.898 1.247-.68.197-1.053.026-2.662-.527-1.607-.556-8.481-2.44-12.196-4.047-3.713-1.607-6.208-6.319-7.982-10.423-.924-2.131-1.95-3.559-2.722-4.439-.716-.814-1.021-1.279-1.215-1.159-.194.119-.24.241-.082 1.526.123.993.022 1.511.41 4.414.887 6.654 5.271 11.192 7.822 13.13 2.551 1.942 13.307 5.437 13.804 5.712.499.277.555.887.444 1.72-.111.831-.444 1.219-.887 1.608-.444.386-1.274 3.214-1.441 4.268-.166 1.05.222 4.766.776 5.504.555.743.887 3.2 1.164 4.639.277 1.439.61 4.324.057 4.988-.556.665-.444 1.055-.942 1.499-.5.444-1.289 3.562-1.528 4.805-.242 1.241-.247 1.735-.247 1.735s-.499.777-.998 1.22c-.498.444-.333.776-.277 1.109.056.332-.054 1.83 0 2.327.056.499.555 1.662.611 2.327.055.665.831 4.712.942 5.214.11.498.611 1.661.611 2.16 0 .497.941 1.385 1.664 1.886.72.499 1.772.499 2.826.331 1.053-.168.832-.498 1.332-.773.499-.28.555-.613.387-1.11-.166-.5-1.496-1.72-2.218-1.773-.72-.056-1.519-.556-1.783-.989-.252-.418.07-2.448.07-2.448s.882.331 1.658.221c.776-.11.832-.499 1.275-.555s.555-.497.665-.996c.111-.501-.166-1.109-.941-1.389-.776-.276-1.831-.33-2.386-.664-.555-.332-.11-1.884 0-2.437.11-.556 1.774-3.606 2.772-4.604.999-1 2.329-2.494 3.105-3.992.776-1.497 1.607-1.773 2.938-4.879 1.331-3.105 2.495-6.374 2.826-6.763.333-.39 3.771.444 6.543.557 2.771.108 7.262 1.606 12.307 3.491 5.044 1.888 10.866 2.161 11.475 2.329.611.164.457.119.657.578.194.443.063 1.915-.046 2.523-.112.61.331 1.275.277 1.995-.056.725.444 6.487.61 8.764.166 2.271.108 4.821.666 5.374.552.556.884 2.055 1.164 2.773.275.72.387 2.051 2.05 3.159 1.664 1.109 2.997.39 4.438.168 1.44-.222 1.438-.832.828-1.941-.609-1.108-2.161-1.498-2.771-1.773-.61-.276-1.164-1.996-1.164-1.996s1.164.112 1.663 0c.498-.11.665-.498 1.054-.332.388.168.83-.332.998-.718.165-.391 0-1.109-.223-1.5-.222-.388-1.164-1.054-1.663-1.163-.497-.112-1.441-.167-1.718-.501-.277-.331-.724-1.938-.777-2.381-.056-.444.166-1.888.276-2.883.111-1 .501-5.712.723-6.931.221-1.218.775-2.439 1.108-3.271.332-.83 1.052-1.884 1.496-2.215.444-.335 1.886-2.108 2.606-3.606.72-1.494 1.387-3.102 1.607-3.381.221-.278.887-.998 1.219-2.16.332-1.167-.124-2.691.082-3.188.21-.499 1.083-1.331 1.79-2.163.706-.83 1.082-1.704 1.621-2.578.539-.871 1.08-2.993 1.206-3.448.124-.459 1.496-2.372 2.122-3.536.621-1.163 2.325-1.621 3.614-1.163 1.288.457 2.788.251 3.119 0 .333-.251 1.361-.575 1.66-.536.482.063.792.039 1.623-.422.831-.456 1.955-2.159 2.328-2.867.374-.707.208-1.414.208-1.414s.309.181.584-1.057c.25-1.139-1.086-1.399-1.418-1.567z"></path></g><!----></svg>