<?xml version="1.0" standalone="no"?><svg xmlns="http://www.w3.org/2000/svg" viewBox="0 0 1440 320"><path fill="#2B6122" fill-opacity="1" d="M0,160L40,144C80,128,160,96,240,101.3C320,107,400,149,480,170.7C560,192,640,192,720,170.7C800,149,880,107,960,96C1040,85,1120,107,1200,117.3C1280,128,1360,128,1400,128L1440,128L1440,320L1400,320C1360,320,1280,320,1200,320C1120,320,1040,320,960,320C880,320,800,320,720,320C640,320,560,320,480,320C400,320,320,320,240,320C160,320,80,320,40,320L0,320Z"></path></svg>